<?xml version="1.0" encoding="utf-8" ?><svg xmlns="http://www.w3.org/2000/svg" xmlns:xlink="http://www.w3.org/1999/xlink" width="3200" height="3200" viewBox="0 0 3200 3200"><path fill="#26a671" d="M1671.79 1880.79C1662.1 1867.55 1649.94 1854.39 1641.42 1840.78C1583.68 1748.56 1625.54 1621.03 1711.9 1562.3C1741.48 1542.19 1771.58 1525.81 1802.83 1508.55C1849.01 1483.38 1894.98 1457.82 1940.74 1431.89C1998.3 1398.71 2055.42 1364.76 2112.09 1330.08C2144.17 1310.74 2176.21 1290.86 2208.95 1272.73C2218.3 1267.55 2243.06 1254.01 2253.65 1256.17C2274.81 1260.47 2276.28 1284.42 2276.29 1301.58C2276.34 1396.87 2273.81 1492.19 2272.93 1587.48C2272.64 1675.26 2276.02 1763.33 2275.46 1851.16C2275.27 1881.53 2275.29 1912.91 2267.27 1942.35C2247.86 2013.91 2179.67 2045.42 2120.24 2078.68L2001.09 2145.94L1809.77 2257.54C1758.76 2287.52 1658.45 2354.38 1599.26 2355.6C1546.61 2356.69 1462.7 2300.56 1416.75 2274.93C1362.14 2243.6 1311.05 2210.54 1257.57 2179.9L1100.33 2091.76C921.528 1991.63 920.618 1986.19 922.464 1783.39L923.477 1614.86L922.975 1422.4C922.636 1373.41 919.992 1320.1 926.486 1271.79C931.794 1232.31 957.326 1194.81 989.34 1172.04C1038.84 1137.37 1094.6 1108.73 1147.32 1079.04C1232.85 1030.76 1318.05 981.893 1402.93 932.455L1786.58 706.531C1885.4 647.343 1982.82 585.739 2085 532.522C2140.86 503.426 2206.96 474.645 2271.07 474.887C2374.87 476.371 2473.56 538.567 2562.29 587.349C2665.47 644.073 2774.88 700.776 2863.88 777.792C2928.66 833.849 2951.66 928.903 2954.95 1011.02C2957.94 1085.54 2956.29 1161.56 2955.1 1236.18C2952.7 1352.59 2951.38 1469.02 2951.16 1585.45C2950.82 1688.77 2951.73 1792.08 2953.87 1895.38C2955.97 1981.42 2960.05 2070.27 2957.4 2156.17C2956.12 2197.84 2948.9 2261.77 2937.35 2301.09C2922.23 2352.59 2884.64 2404.49 2842.53 2437.76C2765.64 2498.53 2675.53 2545.76 2590.25 2593.63C2501.4 2643.49 2410.4 2692.25 2322.23 2742.78C2233.62 2793.21 2145.74 2844.93 2058.64 2897.92C1967.26 2953.4 1875.74 3010.56 1781.13 3060C1694.5 3105.27 1611.15 3132.83 1514.68 3101.16C1406.7 3065.7 1317.25 3003.58 1219.73 2946.78C1111.67 2881.61 1006.87 2818.55 897.374 2755.61C816.906 2709.61 736.039 2664.32 654.784 2619.72C562.299 2569.52 467.348 2518.31 380.883 2458.15C338.455 2428.63 303.385 2392.49 279.43 2346.36C253.91 2297.22 245.194 2227.53 242.139 2171.89C238.242 2100.93 240.295 2021.39 242.368 1950.1C245.024 1871.43 246.592 1792.73 247.07 1714.02C247.597 1614.78 247.285 1515.53 246.134 1416.28C244.259 1349.15 242.812 1281.99 241.79 1214.84C240.055 1127.07 235.978 976.581 262.052 895.502C279.175 841.854 311.689 794.423 355.553 759.106C389.212 731.57 432.349 704.675 469.593 682.11C526.554 647.932 584.305 615.091 642.801 583.612C732.515 534.395 821.871 484.527 910.862 434.012C1009.02 376.672 1106.76 318.601 1204.05 259.804C1276.36 216.216 1344.63 175.278 1419.18 135.705C1589.79 45.1382 1687.27 82.2 1843.69 171.172C1896.76 201.508 1949.44 232.522 2001.72 264.207C2025.63 278.575 2052.43 295.711 2076.47 309.206C2076.3 310.059 2075.5 311.977 2075.16 312.876C2068.82 312.634 2055.4 306.502 2048.36 303.642C2025.57 294.389 1962.43 290.897 1942.17 305.655C1875.64 326.007 1806.36 368.302 1746.68 404.096L1606.74 488.133L1162.41 751.346C1028.02 829.8 889.247 898.314 757.81 982.614C626.492 1066.84 641.5 1189.77 643.076 1326.21L645.223 1544.3C645.536 1626.04 645.099 1707.78 643.913 1789.51C642.92 1870.29 634.754 2019.01 658.029 2092.86C670.878 2133.62 695.697 2165.69 728.476 2192.65C778.904 2234.13 839.87 2265.33 896.646 2297.26L1137.38 2431.79C1201.71 2468.34 1264.85 2508.52 1329.02 2545.56C1373.55 2571.27 1416.42 2600.09 1462.79 2622.83C1532.43 2657.38 1588.06 2680.27 1664.91 2654.02C1729.93 2631.81 1781.82 2597.2 1840.3 2563.3C1912.84 2521.25 1984.46 2475.63 2056.79 2434.04L2286.72 2304.68C2342.07 2273.78 2400.24 2242.33 2451.99 2205.93C2484.68 2182.93 2509.55 2160.74 2527.46 2124.6C2543.59 2092.04 2549.15 2067.23 2552 2030.96C2557.25 1964.31 2555.2 1898.04 2554.25 1831.32L2551.83 1585.15C2552.1 1506.76 2552.79 1428.37 2553.9 1349.99C2555.08 1271.21 2561.67 1176.75 2538.82 1100.99C2521.29 1042.83 2467.13 993.05 2413.72 967.912C2349.16 937.712 2296.95 925.202 2228.93 950.556C2162.5 975.317 2102.86 1011.75 2042.59 1048.19C1981.48 1085.5 1920.03 1122.26 1858.25 1158.46C1784.52 1200.83 1710.5 1242.7 1636.21 1284.07C1569.44 1321.02 1503.35 1356.52 1440.89 1401C1364.52 1453.52 1321.46 1566.42 1354 1654.78C1385.82 1741.19 1491.67 1787.85 1568.05 1827.72C1596.55 1842.59 1628.44 1861.18 1657.24 1874.47C1662.04 1876.69 1666.89 1878.8 1671.79 1880.79Z"/></svg>